<svg xmlns="http://www.w3.org/2000/svg" viewBox="0 0 16 16">
  <style>
    path {
      fill: #000;

      @media (prefers-color-scheme: dark) {
        fill: #FFF;
      }
    }
  </style>
  <path d="M8.712 11.016c-.017-2.175-.013-3.97.008-3.987.03-.034 1.325-.785 4.284-2.489.557-.323 1.269-.733 1.575-.91.31-.181.66-.384.785-.449l.22-.125.225.393c.263.461.263.47-.052 1.018-.242.427-2.377 4.12-3.098 5.367-.759 1.307-2.062 3.563-2.407 4.163-.177.31-.371.617-.436.686-.177.194-.414.285-.763.285h-.307l-.034-3.952Zm-2.244 3.87c-.241-.113-.353-.25-.72-.89-.345-.599-1.648-2.855-2.407-4.162C2.62 8.587.485 4.894.243 4.467c-.315-.548-.315-.557-.052-1.018l.225-.393.22.125c.125.065.474.268.785.449.31.177 1.018.587 1.575.91 2.96 1.704 4.253 2.455 4.284 2.49.021.017.025 1.811.008 3.986l-.034 3.951h-.307a1.18 1.18 0 0 1-.479-.081Zm.497-9.621c-.557-.328-2.093-1.221-3.409-1.985-1.315-.768-2.403-1.397-2.411-1.406-.03-.03.25-.475.37-.591.277-.268-.137-.25 6.485-.25s6.208-.018 6.484.25c.121.116.401.56.371.591-.008.009-1.096.638-2.411 1.406-1.316.764-2.856 1.657-3.422 1.99a37.67 37.67 0 0 1-1.035.59c-.004 0-.466-.272-1.022-.595Z"/>
</svg>