<svg xmlns="http://www.w3.org/2000/svg" xmlns:xlink="http://www.w3.org/1999/xlink">
    <symbol id="harddance" viewBox="0 0 1800 862">
        <path d="M704.613 750.35 673.4 666.413l-79.835-214.795H497.72l-113.05 304.335L345.353 861.8l95.143.1L453 828.385l.3-.1 165.674-51.323L650.69 862h95.143l-41.219-111.65ZM492.72 722.438l-24.41 7.603 29.512-21.41 47.622-128.356v-.2l.2.2 42.018 112.65-94.942 29.513Zm355.158-155.87-9.704-22.31 9.704 22.31Zm272.02-115.25V861.8h-89.74v-.1h-54.723L838.173 544.259l17.307 72.932V861.8l-89.74-.5V451.317h32.315l-.1-.1h99.644l.1.1 132.459 306.637V451.317h89.74Zm462.606 89.24v73.632h130.058v91.04h-130.058l-31.414-.1.5.1 30.914 12.006v55.724H1800v88.74h-308.237v-.4h-.3V451.718H1800v88.84h-217.497Zm-111.75-89.54v90.54h-124.755c-64.028 0-115.951 51.322-115.951 115.35 0 60.128 45.72 109.45 104.246 115.252 2.001.2 3.902.3 5.903.4 1.9.1 3.901.1 5.802.1h124.756v89.14h-124.756c-113.65 0-205.791-91.841-205.791-205.492 0-113.55 91.64-205.09 205.191-205.29h125.356Zm80.837 254.212-.5-.1M177.478 451.117l-176.779.2L0 862h177.079c113.65 0 205.791-91.84 205.791-205.491S291.23 451.117 177.48 451.117Zm11.405 321.043c-2 .2-3.902.3-5.903.4-1.9.1-3.801.1-5.802.1H52.423l36.517-9.804V541.457h88.239c64.028 0 115.951 51.323 115.951 115.352.1 60.227-45.62 109.549-104.246 115.351ZM706.214 0H610.37l-112.85 303.935-.2.4-39.117 105.447-.2.4 95.142.1 12.706-33.915.2-.1 165.573-51.323.1.3 31.714 85.038h95.143L706.214 0ZM581.859 277.824l28.712-20.81 47.622-128.357v-.1l.2.2 41.918 112.35-118.452 36.717ZM435.393.1v410.182h-89.04l.201-147.265H157.27v147.265H68.23V.1h89.04v174.077l189.484.3.3-174.377h88.34Zm64.029 303.835-.1.4-39.117 105.447h-.2l39.317-105.747.1-.1Zm1141.407 15.507h90.94v90.94h-90.94v-90.94ZM1264.262 90.34v.1-.1ZM1441.241 0l-176.779.2-.7 410.683h177.078c113.651 0 205.792-91.841 205.792-205.492S1554.992 0 1441.24 0Zm11.505 321.043c-2.001.2-3.902.4-5.903.4-1.9.1-3.802.2-5.803.2h-124.755l36.516-9.904V90.44h88.24c64.028 0 116.051 51.323 116.051 115.352-.1 60.026-45.82 109.348-104.346 115.25Zm-208.993 89.44h-125.056L971.032 262.916h-2.802v147.565h-.1l-88.639.5.1-296.13h88.64v59.726h136.66c23.71 0 43.02-19.209 43.02-43.02 0-21.91-16.408-40.017-37.718-42.618H848.578L815.763.4h295.23c38.218 1.701 72.233 19.809 95.143 47.421a121.504 121.504 0 0 1 12.306 17.708c11.305 19.409 17.808 41.919 17.808 66.03 0 72.532-58.827 131.258-131.259 131.258h-33.815l37.317 12.005 135.26 135.66Z"/>
    </symbol>

    <symbol id="info" viewBox="0 0 16 16">
        <path d="M7.995 15.99c4.37 0 8.005-3.626 8.005-7.995S12.354 0 7.985 0C3.626 0 0 3.626 0 7.995s3.636 7.995 7.995 7.995Zm0-1.506c-3.596 0-6.47-2.883-6.47-6.489s2.864-6.49 6.46-6.49c3.606 0 6.5 2.884 6.5 6.49s-2.884 6.49-6.49 6.49Zm-1.337-2.1h3.15c.357 0 .644-.258.644-.624 0-.347-.287-.615-.644-.615h-.872V7.44c0-.485-.238-.792-.683-.792H6.806c-.356 0-.634.267-.634.604 0 .367.278.624.634.624h.723v3.27h-.871c-.357 0-.644.267-.644.614 0 .366.287.624.644.624Zm1.258-6.955c.624 0 1.11-.495 1.11-1.12S8.54 3.2 7.915 3.2c-.614 0-1.11.485-1.11 1.11s.496 1.12 1.11 1.12Z"/>
    </symbol>

    <symbol id="close" viewBox="0 0 16 16">
        <path d="M1.737 14.258c.33.32.869.32 1.19 0l5.07-5.08 5.08 5.08c.31.32.858.32 1.179 0 .32-.332.32-.87 0-1.18l-5.08-5.08 5.08-5.07a.846.846 0 0 0 0-1.19c-.332-.31-.87-.31-1.18 0l-5.08 5.08-5.07-5.08c-.32-.31-.869-.32-1.19 0a.877.877 0 0 0 0 1.19l5.08 5.07-5.08 5.08a.853.853 0 0 0 0 1.18Z"/>
    </symbol>

    <symbol id="amazon" viewBox="0 0 16 16">
        <path d="M13.855 13.171C7.252 16.314 3.153 13.684.53 12.087c-.163-.1-.439.024-.2.299C1.206 13.446 4.07 16 7.809 16c3.741 0 5.967-2.042 6.246-2.398.276-.353.08-.548-.199-.43Zm1.855-1.024c-.177-.231-1.078-.274-1.645-.204-.568.067-1.42.414-1.347.623.039.078.116.043.506.008.391-.04 1.487-.178 1.716.12.23.301-.35 1.733-.456 1.964-.102.231.04.29.231.137.19-.154.532-.552.762-1.115.229-.567.368-1.357.233-1.533Zm-3.324-4.153v-3.3c0-1.395.098-2.678-.932-3.64C10.642.274 9.296 0 8.266 0c-2.013 0-4.26.75-4.734 3.24-.047.264.143.404.316.443l2.054.22c.19-.009.33-.196.366-.387.176-.857.896-1.271 1.703-1.271.435 0 .929.16 1.188.55.295.435.256 1.03.256 1.534v.274c-1.226.14-2.831.229-3.98.735-1.325.572-2.257 1.742-2.257 3.46 0 2.2 1.387 3.298 3.168 3.298 1.506 0 2.328-.354 3.489-1.54.387.558.512.829 1.215 1.412.157.083.36.074.5-.05l.006.005a89.434 89.434 0 0 1 1.622-1.405c.173-.143.143-.372.006-.563-.387-.535-.798-.97-.798-1.961ZM9.02 9.003c-.336.595-.87.961-1.465.961-.812 0-1.286-.619-1.286-1.533 0-1.804 1.617-2.131 3.147-2.131v.458c0 .825.02 1.512-.396 2.245Z"/>
    </symbol>

    <symbol id="apple-music" viewBox="0 0 16 16">
        <path d="M16 4.432c-.002-.161-.004-.322-.008-.483-.01-.35-.03-.704-.092-1.05a3.55 3.55 0 0 0-.33-1A3.36 3.36 0 0 0 14.1.43a3.557 3.557 0 0 0-.998-.33 7.004 7.004 0 0 0-1.05-.092 21.52 21.52 0 0 0-.484-.007H4.432c-.161 0-.322.003-.483.007-.35.01-.705.03-1.051.093a3.54 3.54 0 0 0-.999.33A3.36 3.36 0 0 0 .43 1.898a3.55 3.55 0 0 0-.329 1c-.062.347-.083.7-.092 1.05-.004.161-.006.322-.007.483L0 5.005V11.568c.002.161.004.322.008.483.01.35.03.704.092 1.05.064.353.167.68.33 1A3.359 3.359 0 0 0 1.9 15.57c.319.163.646.266.998.33.346.062.7.082 1.05.092.162.004.323.006.484.007H11.568c.16-.001.322-.003.483-.007.35-.01.704-.03 1.05-.093a3.54 3.54 0 0 0 1-.329 3.36 3.36 0 0 0 1.469-1.469 3.55 3.55 0 0 0 .33-1c.061-.346.082-.7.092-1.05.004-.161.006-.322.007-.483V5.005H16v-.573Zm-4.288 5.98c0 .203-.002.386-.044.59a1.48 1.48 0 0 1-.233.548 1.396 1.396 0 0 1-.438.405c-.175.104-.36.163-.556.203-.369.074-.621.09-.858.043a1.198 1.198 0 0 1-.577-.293 1.257 1.257 0 0 1-.404-.792 1.26 1.26 0 0 1 .34-.995 1.38 1.38 0 0 1 .52-.334c.231-.09.487-.143.88-.222l.31-.063c.137-.028.253-.062.348-.177.095-.116.096-.257.096-.397V5.404c0-.27-.121-.343-.379-.294-.184.036-4.137.834-4.137.834-.223.054-.301.127-.301.403v5.163c0 .202-.01.386-.053.589a1.478 1.478 0 0 1-.233.549 1.396 1.396 0 0 1-.438.405c-.175.103-.359.165-.555.205-.37.074-.622.09-.859.043a1.198 1.198 0 0 1-.577-.296 1.245 1.245 0 0 1-.395-.792c-.036-.348.07-.72.332-.995.132-.138.298-.248.519-.333.232-.09.487-.144.88-.223.104-.02.207-.042.31-.063.137-.027.254-.062.348-.177s.105-.25.105-.39V4.082c0-.08.007-.135.01-.161a.484.484 0 0 1 .16-.31.662.662 0 0 1 .297-.132h.002l4.756-.96c.04-.009.384-.07.423-.073.257-.023.402.146.401.42v7.547Z"/>
    </symbol>

    <symbol id="deezer" viewBox="0 0 16 16">
        <path d="M12.54 2.778H16v2.024h-3.46V2.778Zm0 2.807H16v2.024h-3.46V5.585Zm0 2.806H16v2.024h-3.46V8.391ZM0 11.198h3.46v2.024H0v-2.024Zm4.177 0h3.46v2.024h-3.46v-2.024Zm4.186 0h3.46v2.024h-3.46v-2.024Zm4.177 0H16v2.024h-3.46v-2.024ZM8.363 8.39h3.46v2.024h-3.46V8.391Zm-4.186 0h3.46v2.024h-3.46V8.391Zm0-2.806h3.46v2.024h-3.46V5.585Z"/>
    </symbol>

    <symbol id="tidal" viewBox="0 0 16 16">
        <path d="M10.667 5.333 8 8 5.333 5.333 8 2.667l2.667 2.666Zm0 5.333L8 13.333l-2.667-2.667L8 8l2.667 2.667ZM5.333 5.333 2.666 8 0 5.333l2.666-2.666 2.667 2.666Zm10.667 0L13.334 8l-2.667-2.667 2.667-2.666L16 5.333Z"/>
    </symbol>

    <symbol id="facebook" viewBox="0 0 16 16">
        <path d="m11.723 9 .445-2.896H9.389V4.225c0-.792.388-1.564 1.633-1.564h1.263V.196S11.138 0 10.043 0C7.754 0 6.259 1.387 6.259 3.897v2.207H3.715V9H6.26v7h3.13V9h2.334Z"/>
    </symbol>

    <symbol id="hardstyle" viewBox="0 0 16 16">
        <path d="M14.803 0H1.197C.536 0 0 .536 0 1.197v13.606C0 15.464.536 16 1.197 16h13.606c.661 0 1.197-.536 1.197-1.197V1.197C16 .536 15.464 0 14.803 0ZM12.98 8.334l-8.058 4.123a.377.377 0 0 1-.546-.334V3.877a.376.376 0 0 1 .546-.334l8.058 4.123a.375.375 0 0 1 0 .668Z"/>
    </symbol>

    <symbol id="instagram" viewBox="0 0 16 16">
        <path d="M8.002 3.899C5.732 3.899 3.9 5.729 3.9 8s1.832 4.101 4.102 4.101 4.101-1.83 4.101-4.101-1.831-4.101-4.101-4.101Zm0 6.767c-1.467 0-2.667-1.195-2.667-2.666s1.196-2.666 2.667-2.666S10.668 6.529 10.668 8s-1.2 2.666-2.666 2.666Zm5.225-6.935a.954.954 0 0 1-.956.957.957.957 0 1 1 .957-.957Zm2.717.97c-.06-1.28-.354-2.416-1.292-3.35C13.716.414 12.582.121 11.3.057c-1.32-.075-5.28-.075-6.6 0-1.278.06-2.413.353-3.352 1.289S.12 3.417.056 4.698c-.075 1.321-.075 5.28 0 6.6.06 1.282.354 2.417 1.292 3.352.94.935 2.07 1.228 3.352 1.292 1.32.075 5.28.075 6.6 0 1.281-.06 2.416-.353 3.352-1.292.935-.935 1.228-2.07 1.292-3.352.075-1.32.075-5.275 0-6.596Zm-1.706 8.014a2.7 2.7 0 0 1-1.521 1.52c-1.053.418-3.552.322-4.715.322s-3.666.093-4.715-.321a2.7 2.7 0 0 1-1.521-1.52C1.348 11.661 1.445 9.163 1.445 8s-.093-3.666.321-4.715a2.7 2.7 0 0 1 1.52-1.52c1.054-.418 3.552-.322 4.716-.322s3.666-.093 4.715.321a2.7 2.7 0 0 1 1.52 1.52c.418 1.054.322 3.552.322 4.716s.096 3.666-.321 4.715Z"/>
    </symbol>

    <symbol id="spotify" viewBox="0 0 16 16">
        <path d="M8 0C3.584 0 0 3.584 0 8s3.584 8 8 8 8-3.584 8-8-3.584-8-8-8Zm3.248 11.771c-.135 0-.219-.042-.345-.116-2.013-1.213-4.355-1.265-6.668-.79-.125.032-.29.083-.383.083a.502.502 0 0 1-.51-.51c0-.332.197-.49.439-.541 2.642-.584 5.342-.532 7.645.845.197.126.313.239.313.532s-.23.497-.49.497Zm.868-2.116c-.168 0-.28-.074-.397-.136-2.016-1.193-5.022-1.674-7.696-.948-.155.042-.24.084-.384.084-.345 0-.626-.28-.626-.626s.168-.574.5-.668a10.85 10.85 0 0 1 3.155-.438c2.093 0 4.116.519 5.71 1.467.26.155.364.355.364.636a.625.625 0 0 1-.626.629Zm1-2.458a.742.742 0 0 1-.416-.126c-2.297-1.371-6.403-1.7-9.061-.958-.116.032-.262.084-.416.084a.744.744 0 0 1-.752-.762c0-.438.27-.687.561-.77 1.136-.333 2.407-.49 3.79-.49 2.355 0 4.823.49 6.626 1.541.252.145.417.345.417.73a.747.747 0 0 1-.749.75Z"/>
    </symbol>

    <symbol id="twitter" viewBox="0 0 16 16">
        <path d="M9.522 6.776 15.475 0h-1.41l-5.17 5.882L4.766 0H.007l6.241 8.896L.007 16h1.41l5.456-6.213L11.233 16h4.76M1.926 1.041h2.166l9.972 13.969h-2.167"/>
    </symbol>

    <symbol id="youtube" viewBox="0 0 16 16">
        <path d="M15.666 4.135a2.01 2.01 0 0 0-1.415-1.423C13.003 2.375 8 2.375 8 2.375s-5.003 0-6.251.337A2.01 2.01 0 0 0 .334 4.135C0 5.391 0 8.011 0 8.011s0 2.62.334 3.876a1.98 1.98 0 0 0 1.415 1.401c1.248.337 6.251.337 6.251.337s5.003 0 6.251-.337a1.98 1.98 0 0 0 1.415-1.4C16 10.631 16 8.01 16 8.01s0-2.62-.334-3.876ZM6.364 10.39V5.632l4.181 2.38-4.181 2.378Z"/>
    </symbol>

    <symbol id="email" viewBox="0 0 16 16">
        <path d="M7.996 8.663c.21 0 .42-.084.612-.26l6.612-5.798c-.378-.235-.789-.335-1.36-.335H2.14c-.571 0-.982.1-1.368.335l6.62 5.798c.193.176.402.26.604.26ZM.143 12.564l4.832-4.832-4.85-4.246c-.05.11-.125.428-.125.89v7.249c0 .41.059.704.143.94Zm1.762 1.166h12.19c.47 0 .848-.109 1.1-.276l-5.01-5-.93.83c-.395.344-.831.52-1.26.52-.419 0-.855-.176-1.25-.52l-.939-.83-5.009 5c.252.167.638.276 1.108.276Zm13.952-1.166a2.95 2.95 0 0 0 .143-.94V4.376c0-.461-.075-.78-.126-.889l-4.85 4.246 4.833 4.832Z"/>
    </symbol>

    <symbol id="website" viewBox="0 0 16 16">
        <path d="M7.985.005C3.626.005 0 3.63 0 8s3.636 7.995 7.995 7.995C12.365 15.995 16 12.37 16 8S12.354.005 7.985.005ZM7.42 4.07a11.333 11.333 0 0 1-1.527-.16c.399-1.062.937-1.847 1.527-2.164v2.324Zm0 1.146v2.208H5.216c.038-.86.159-1.683.342-2.426.585.117 1.212.19 1.862.218Zm0 3.358v2.248c-.647.028-1.272.1-1.855.217a12.384 12.384 0 0 1-.35-2.465H7.42Zm0 3.394v2.284c-.584-.314-1.117-1.085-1.514-2.127.47-.083.977-.135 1.514-.157Zm1.15 0c.542.022 1.052.074 1.523.158-.399 1.043-.934 1.816-1.523 2.128v-2.286Zm0-1.146V8.575h2.215c-.037.873-.16 1.71-.35 2.465a12.182 12.182 0 0 0-1.865-.217Zm0-3.398V5.217a12.18 12.18 0 0 0 1.871-.22c.184.744.305 1.568.343 2.428H8.57Zm0-3.354V1.745c.595.316 1.135 1.102 1.536 2.166-.475.085-.99.138-1.536.16ZM10 1.507a6.888 6.888 0 0 1 2.544 1.48c-.37.254-.806.468-1.307.636-.325-.866-.746-1.586-1.236-2.116ZM4.76 3.624a5.168 5.168 0 0 1-1.311-.642 6.841 6.841 0 0 1 2.549-1.481c-.492.53-.913 1.253-1.238 2.123Zm-.332 1.075a13.29 13.29 0 0 0-.38 2.726h-2.82a6.776 6.776 0 0 1 1.443-3.61c.464.356 1.062.653 1.757.884Zm-.381 3.876c.036.994.171 1.925.387 2.764-.687.227-1.28.519-1.743.868A6.77 6.77 0 0 1 1.23 8.575h2.818Zm.725 3.837c.323.852.74 1.562 1.225 2.085a6.86 6.86 0 0 1-2.52-1.46c.365-.249.798-.459 1.295-.625Zm6.453 0c.496.166.93.376 1.297.626a6.867 6.867 0 0 1-2.527 1.46c.487-.523.905-1.233 1.23-2.085Zm.339-1.072c.216-.84.352-1.77.39-2.765h2.817a6.767 6.767 0 0 1-1.464 3.633c-.464-.35-1.057-.641-1.743-.868Zm.389-3.915a13.234 13.234 0 0 0-.383-2.727c.692-.23 1.288-.526 1.753-.88a6.757 6.757 0 0 1 1.448 3.607h-2.818Z"/>
    </symbol>

    <symbol id="soundcloud" viewBox="0 0 16 16">
        <path d="M4 12h1V5.703a2.57 2.57 0 0 0-1 .551V12ZM2 7.74v4.253l.064.007H3V7.733h-.936L2 7.74ZM0 9.866c0 .774.403 1.446 1 1.82V8.047a2.14 2.14 0 0 0-1 1.819ZM6 12h1V5.98a2.496 2.496 0 0 0-1-.357V12Zm7.936-4.267h-.563a3.28 3.28 0 0 0 .047-.533c0-1.767-1.387-3.2-3.097-3.2A3.04 3.04 0 0 0 8 5.096V12h5.936C15.075 12 16 11.045 16 9.866c0-1.178-.925-2.133-2.064-2.133Z"/>
    </symbol>

    <symbol id="github" viewBox="0 0 16 16">
        <path d="M8.007.133C3.579.133 0 3.74 0 8.2a8.06 8.06 0 0 0 5.475 7.652c.397.08.543-.173.543-.387 0-.187-.013-.828-.013-1.496-2.227.481-2.691-.961-2.691-.961-.358-.935-.888-1.175-.888-1.175-.73-.494.053-.494.053-.494.808.053 1.233.828 1.233.828.715 1.228 1.869.881 2.333.667.066-.52.278-.881.504-1.081-1.777-.187-3.646-.882-3.646-3.98 0-.881.318-1.603.822-2.163-.08-.2-.358-1.029.08-2.137 0 0 .676-.214 2.2.828a7.698 7.698 0 0 1 2.002-.267 7.7 7.7 0 0 1 2.001.267c1.525-1.042 2.2-.828 2.2-.828.438 1.108.16 1.936.08 2.137.517.56.822 1.282.822 2.163 0 3.098-1.869 3.78-3.659 3.98.292.253.544.734.544 1.495 0 1.082-.013 1.95-.013 2.217 0 .214.146.468.543.388A8.06 8.06 0 0 0 16 8.199C16.013 3.74 12.42.133 8.007.133Z"/>
    </symbol>

    <symbol id="discord" viewBox="0 0 16 16">
        <path d="M13.554 2.952a13.233 13.233 0 0 0-3.301-1.015 9.07 9.07 0 0 0-.423.86 12.292 12.292 0 0 0-3.664 0 9.106 9.106 0 0 0-.422-.86c-1.141.194-2.252.537-3.304 1.018C.351 6.045-.215 9.06.068 12.03a13.306 13.306 0 0 0 4.048 2.032c.328-.44.618-.908.867-1.398a8.61 8.61 0 0 1-1.365-.652c.115-.083.227-.168.335-.251a9.51 9.51 0 0 0 8.094 0c.11.089.222.174.335.251a8.643 8.643 0 0 1-1.368.653c.249.49.539.957.867 1.397a13.245 13.245 0 0 0 4.051-2.03c.332-3.447-.568-6.433-2.378-9.08Zm-8.212 7.252c-.789 0-1.44-.717-1.44-1.597S4.53 7.003 5.34 7.003s1.456.723 1.442 1.604-.636 1.597-1.44 1.597Zm5.316 0c-.79 0-1.44-.717-1.44-1.597s.63-1.604 1.44-1.604 1.452.723 1.438 1.604-.634 1.597-1.438 1.597Z"/>
    </symbol>

    <symbol id="q-dance" viewBox="0 0 16 16">
        <path d="M8 15.975c-4.41 0-8-3.578-8-7.975S3.59.025 8 .025 16 3.603 16 8c.005 4.396-3.59 7.975-8 7.975ZM8 .835C4.039.834.81 4.046.81 8c0 3.948 3.223 7.166 7.189 7.166 3.96 0 7.188-3.213 7.188-7.166C15.188 4.052 11.965.834 8 .834Zm2.156 7.9a1 1 0 0 0-1.413 0 .992.992 0 0 0 0 1.41l2.284 2.276a.994.994 0 0 0 1.405.003l.003-.003a.992.992 0 0 0 0-1.409l-2.279-2.276Zm-2.171-6.35c-3.095 0-5.618 2.51-5.618 5.6 0 3.087 2.518 5.601 5.618 5.601.25 0 .504-.014.753-.048a.996.996 0 1 0-.27-1.974A3.617 3.617 0 0 1 4.367 7.99c0-1.99 1.624-3.608 3.619-3.608a3.617 3.617 0 0 1 3.594 4.027.994.994 0 0 0 .873 1.101h.002a.995.995 0 0 0 1.105-.871v-.002c.025-.219.04-.438.04-.653.004-3.09-2.519-5.6-5.614-5.6Z"/>
    </symbol>

    <symbol id="b2s" viewBox="0 0 16 16">
        <path d="M9.29 5.292H6.71v2.321l1.032-.773v-.774h.516v1.16L6.71 8.387v2.321H9.29V8.387l-1.032.774v.773h-.516v-1.16L9.29 7.613V5.292m3.482-2.322L9.677 5.292v2.321l1.547 1.161v1.934l-.516-.387v-1.16l-1.031-.774v2.321l3.095 2.322v-1.161l-.516-.387V8.387l-1.548-1.161V5.679l.516-.387V6.84l1.032.773V4.518l.516-.387v-1.16m-7.48 4.255-.516.387V5.292l.516.387v1.547Zm0 3.095-.516.387V8.774l.516-.387v1.934Zm1.031-5.03-3.095-2.32v1.16l.516.388v6.963l-.516.387v1.161l3.095-2.321V8.387L5.808 8l.515-.387V5.292Zm6.79 7.822A7.184 7.184 0 0 1 8 15.231a7.184 7.184 0 0 1-5.114-2.118A7.184 7.184 0 0 1 .768 8c0-1.932.753-3.747 2.118-5.113A7.184 7.184 0 0 1 8 .769c1.931 0 3.748.752 5.114 2.118A7.184 7.184 0 0 1 15.232 8a7.182 7.182 0 0 1-2.118 5.113ZM16 8a7.947 7.947 0 0 0-1.742-4.984l.464-.347v-1.16l-1.087.814A7.97 7.97 0 0 0 8 0a7.97 7.97 0 0 0-5.635 2.322L1.278 1.51v1.16l.463.348A7.958 7.958 0 0 0 .001 8a7.947 7.947 0 0 0 1.741 4.984l-.463.347v1.16l1.086-.814A7.972 7.972 0 0 0 8 16a7.972 7.972 0 0 0 5.635-2.323l1.086.815v-1.16l-.463-.349A7.956 7.956 0 0 0 16 8Z"/>
    </symbol>

    <symbol id="art-of-dance" viewBox="0 0 16 16">
        <path d="M11.252 5.516 8.474 2.724C6.811 1.05 7.504 0 7.504 0s-2.483 1.697.035 4.229l2.466 2.478a3.43 3.43 0 0 1 0 4.833L8 13.555 5.996 11.54a3.43 3.43 0 0 1 0-4.833l.408-.41 2 2.01a1.16 1.16 0 0 1 0 1.633L8 10.346l-.403-.406a1.16 1.16 0 0 1 0-1.633l.023-.024L6.404 7.06l-.02.021a2.899 2.899 0 0 0 0 4.084L8 12.791l1.617-1.626a2.9 2.9 0 0 0 0-4.084l-3.213-3.23-1.656 1.665a5.121 5.121 0 0 0 0 7.215L8 16l3.252-3.269a5.121 5.121 0 0 0 0-7.215"/>
    </symbol>

    <symbol id="tomorrowland" viewBox="0 0 16 16">
        <path d="M7.471 3.801a.33.33 0 0 0 .321.338.33.33 0 0 0 .321-.338.33.33 0 0 0-.321-.337.33.33 0 0 0-.32.337m1.47.205c0 .513-.422.928-.943.928s-.943-.415-.943-.928c0-.513.422-.93.943-.93.521 0 .944.417.944.93m-3-.01S6.894 5.074 8 5.074s2.058-1.078 2.058-1.078S9.37 2.917 8 2.917 5.942 3.996 5.942 3.996m4.9 5.545s1.538.33 1.538 1.39c0 1.832-2.66 2.623-2.66 2.623s-1.546-.497-1.546-4.446c0-1.738.275-2.691 1.349-3.381 1.168-.75 3.4-1.971 3.475-3.156 4.831 5.011-2.155 6.97-2.155 6.97M8 15.638c-.085-.025-6.6-1.922-6.6-7.12 0-.348.024-.69.069-1.024.146.222.314.43.501.618l-.001.094c0 3.323 2.7 6.017 6.031 6.018 3.331-.001 6.031-2.695 6.031-6.018l-.001-.094c.187-.189.355-.396.501-.618.045.334.07.676.07 1.024 0 5.198-6.516 7.095-6.601 7.12M3.002 2.57c.076 1.185 2.307 2.406 3.475 3.156 1.074.69 1.35 1.643 1.35 3.38 0 3.95-1.546 4.447-1.546 4.447s-2.661-.79-2.661-2.622c0-1.061 1.537-1.39 1.537-1.39s-6.986-1.96-2.155-6.97m7.597 1.424s-.146.474-1.211 1.176c-.864.57-1.148.969-1.388 1.683-.24-.714-.524-1.113-1.388-1.683-1.065-.702-1.211-1.176-1.211-1.176s.68-1.455 2.598-1.455h.002c1.917 0 2.598 1.455 2.598 1.455M4.184 1.912c.322.258.963.28 1.665.055l.104-.035A4.226 4.226 0 0 0 8 .362a4.226 4.226 0 0 0 2.047 1.57l.104.035c.702.226 1.343.203 1.665-.055-.007.29.134.848.519 1.327a3.884 3.884 0 0 1-.396.412A6.019 6.019 0 0 0 8 2.189 6.019 6.019 0 0 0 4.06 3.65a3.898 3.898 0 0 1-.395-.412c.385-.48.526-1.037.52-1.327m10.55 5.284c.098-.19.173-.385.227-.58.356-1.309-.216-2.754-1.702-4.295a.365.365 0 0 0-.386-.09.362.362 0 0 0-.238.317.91.91 0 0 1-.104.349c-.249-.36-.358-.753-.353-.977a.364.364 0 0 0-.591-.29c-.102.082-.29.126-.533.126a2.635 2.635 0 0 1-.89-.166A3.851 3.851 0 0 1 8.298.157a.363.363 0 0 0-.598 0 3.85 3.85 0 0 1-1.965 1.466 2.635 2.635 0 0 1-.791.133c-.242 0-.432-.044-.533-.126a.364.364 0 0 0-.59.29c.004.224-.105.618-.354.977a.91.91 0 0 1-.104-.349.362.362 0 0 0-.624-.227C1.254 3.86.682 5.307 1.039 6.617c.055.2.13.394.225.579a.363.363 0 0 0-.155.249 7.98 7.98 0 0 0-.072 1.072c0 2.265 1.196 4.278 3.459 5.822a13.114 13.114 0 0 0 3.406 1.648.365.365 0 0 0 .196 0c.07-.02 1.73-.504 3.406-1.648 2.263-1.544 3.46-3.557 3.46-5.822 0-.358-.025-.719-.073-1.072a.363.363 0 0 0-.155-.249"/>
    </symbol>

    <symbol id="bass-events" viewBox="0 0 16 16">
        <path d="M10.806 14.855c-1.25 1.297-3.255 1.506-4.95.555-1.148-.643-1.784-1.624-1.98-2.899-.04-.256-.134-.322-.362-.36C1.91 11.886.813 10.992.284 9.447c-.536-1.568-.24-2.985.868-4.279.204.202.399.392.592.585.41.41.814.828 1.235 1.228.162.154.192.269.085.482-.254.502-.155 1.025.219 1.422.34.362.877.5 1.317.311.148-.063.286-.173.401-.288C6.3 7.616 7.593 6.32 8.887 5.025c.444-.445.544-1.044.255-1.52-.295-.482-.945-.752-1.488-.502-.406.187-.607.051-.864-.22-.52-.551-1.067-1.075-1.628-1.634C5.867.537 6.645.14 7.536.032c2.587-.316 4.801 1.734 4.667 4.326a3.96 3.96 0 0 1-1.151 2.64C9.737 8.335 8.415 9.666 7.1 11.003c-.48.487-.505 1.11-.079 1.619.471.561 1.052.644 1.656.238.028-.019.057-.034.077-.045l2.052 2.04Zm1.27-2.42c.022-.24.123-.3.34-.352.451-.107.932-.19 1.33-.411 1.496-.833 2.274-2.094 2.228-3.856-.027-1.023-.469-1.83-1.031-2.578-.686.67-1.351 1.323-2.012 1.97.071.194.162.387.213.59.128.516-.114.973-.666 1.297-.497.29-.92.26-1.318-.098-.306-.275-.61-.552-.863-.783-.708.671-1.4 1.33-2.16 2.052.28.247.548.453.781.692.428.438.481.933.189 1.473-.046.084-.099.164-.127.211l2.01 2.01c.494-.437 1.018-1.465 1.086-2.217ZM5.2 7.223c.205.183.398.379.56.534l2.057-2.043c-.772-.619-1.446-1.304-.81-2.32L4.975 1.36c-.418.452-.892 1.191-.953 1.797-.058.574-.315.748-.845.843a3.38 3.38 0 0 0-1.85 1.01L3.34 7.015c.777-.459 1.153-.422 1.86.208Z"/>
    </symbol>

    <symbol id="options" viewBox="0 0 16 16">
        <path d="M8.796 3.534V1.055c0-.409-.354-.762-.796-.762a.779.779 0 0 0-.796.762v2.477a2.167 2.167 0 0 0-1.37 2.01c0 .903.57 1.68 1.37 1.998v7.372c0 .442.343.795.796.795a.792.792 0 0 0 .796-.795V7.538a2.164 2.164 0 0 0 1.359-1.997 2.17 2.17 0 0 0-1.36-2.007ZM8 6.524c-.552 0-.983-.43-.983-.983s.43-.983.983-.983.983.431.983.983-.43.984-.983.984Zm6.63 1.903V1.099a.795.795 0 1 0-1.591 0v7.328a2.167 2.167 0 0 0-1.37 2.01c0 .903.57 1.68 1.37 1.998v2.52c0 .399.353.752.795.752.442 0 .796-.353.796-.751v-2.52a2.16 2.16 0 0 0 1.37-2c0-.912-.57-1.69-1.37-2.01Zm-.796 2.993c-.541 0-.983-.431-.983-.984s.442-.983.983-.983c.564 0 .984.431.984.983s-.42.984-.984.984ZM1.37 12.435v2.52c0 .399.343.752.796.752.442 0 .795-.353.795-.751v-2.523a2.164 2.164 0 0 0 1.36-1.997A2.17 2.17 0 0 0 2.96 8.43v-7.33a.795.795 0 0 0-.795-.806.788.788 0 0 0-.796.806v7.328A2.167 2.167 0 0 0 0 10.437c0 .903.57 1.68 1.37 1.998Zm.796-2.982c.552 0 .983.431.983.983s-.43.984-.983.984-.984-.431-.984-.984.431-.983.984-.983Z"/>
    </symbol>
</svg>