<svg xmlns="http://www.w3.org/2000/svg" xmlns:xlink="http://www.w3.org/1999/xlink">
    <symbol viewBox="0 0 16 16" id="add">
        <path d="M7.995 15.995C12.365 15.995 16 12.37 16 8S12.354.005 7.985.005C3.626.005 0 3.631 0 8s3.636 7.995 7.995 7.995Zm0-1.506c-3.596 0-6.47-2.883-6.47-6.489s2.864-6.49 6.46-6.49c3.606 0 6.5 2.884 6.5 6.49s-2.884 6.49-6.49 6.49ZM4.349 8c0 .436.307.733.763.733h2.13v2.15c0 .446.297.753.733.753.456 0 .753-.307.753-.753v-2.15h2.15c.446 0 .753-.297.753-.733 0-.446-.307-.753-.753-.753h-2.15v-2.14c0-.456-.297-.763-.753-.763-.436 0-.733.307-.733.763v2.14h-2.13c-.456 0-.763.307-.763.753Z"/>
    </symbol>

    <symbol viewBox="0 0 16 16" id="add-square">
        <path d="M14.101 1.908C13.288 1.105 12.141 1 10.917 1H5.083c-1.224 0-2.371.105-3.184.908C1.096 2.721 1 3.86 1 5.083v5.834c0 1.233.096 2.362.899 3.175.813.803 1.95.908 3.184.908h5.834c1.224 0 2.371-.105 3.184-.908.803-.813.899-1.942.899-3.175V5.083c0-1.233-.096-2.362-.899-3.175Zm-.478 2.965v6.254c0 .698-.077 1.511-.526 1.96-.45.45-1.272.536-1.97.536H4.873c-.698 0-1.52-.086-1.97-.536-.45-.449-.526-1.262-.526-1.96V4.883c0-.708.077-1.521.526-1.97s1.272-.536 1.98-.536h6.244c.698 0 1.52.086 1.97.536.45.449.526 1.262.526 1.96ZM4.48 8c0 .42.296.708.736.708h2.066v2.075c0 .43.287.727.707.727.43 0 .727-.297.727-.727V8.708h2.075c.43 0 .718-.287.718-.708 0-.43-.287-.727-.718-.727H8.717V5.208c0-.44-.296-.737-.727-.737-.42 0-.707.297-.707.737v2.065H5.217c-.44 0-.736.297-.736.727Z"/>
    </symbol>

    <symbol viewBox="0 0 16 16" id="apple-music">
        <path d="M16 4.432c-.002-.161-.004-.322-.008-.483-.01-.35-.03-.704-.092-1.05a3.55 3.55 0 0 0-.33-1A3.36 3.36 0 0 0 14.1.43a3.557 3.557 0 0 0-.998-.33 7.004 7.004 0 0 0-1.05-.092 21.52 21.52 0 0 0-.484-.007H4.432c-.161 0-.322.003-.483.007-.35.01-.705.03-1.051.093a3.54 3.54 0 0 0-.999.33A3.36 3.36 0 0 0 .43 1.898a3.55 3.55 0 0 0-.329 1c-.062.347-.083.7-.092 1.05-.004.161-.006.322-.007.483L0 5.005V11.568c.002.161.004.322.008.483.01.35.03.704.092 1.05.064.353.167.68.33 1A3.359 3.359 0 0 0 1.9 15.57c.319.163.646.266.998.33.346.062.7.082 1.05.092.162.004.323.006.484.007H11.568c.16-.001.322-.003.483-.007.35-.01.704-.03 1.05-.093a3.54 3.54 0 0 0 1-.329 3.36 3.36 0 0 0 1.469-1.469 3.55 3.55 0 0 0 .33-1c.061-.346.082-.7.092-1.05.004-.161.006-.322.007-.483V5.005H16v-.573Zm-4.288 5.98c0 .203-.002.386-.044.59a1.48 1.48 0 0 1-.233.548 1.396 1.396 0 0 1-.438.405c-.175.104-.36.163-.556.203-.369.074-.621.09-.858.043a1.198 1.198 0 0 1-.577-.293 1.257 1.257 0 0 1-.404-.792 1.26 1.26 0 0 1 .34-.995 1.38 1.38 0 0 1 .52-.334c.231-.09.487-.143.88-.222l.31-.063c.137-.028.253-.062.348-.177.095-.116.096-.257.096-.397V5.404c0-.27-.121-.343-.379-.294-.184.036-4.137.834-4.137.834-.223.054-.301.127-.301.403v5.163c0 .202-.01.386-.053.589a1.478 1.478 0 0 1-.233.549 1.396 1.396 0 0 1-.438.405c-.175.103-.359.165-.555.205-.37.074-.622.09-.859.043a1.198 1.198 0 0 1-.577-.296 1.245 1.245 0 0 1-.395-.792c-.036-.348.07-.72.332-.995.132-.138.298-.248.519-.333.232-.09.487-.144.88-.223.104-.02.207-.042.31-.063.137-.027.254-.062.348-.177s.105-.25.105-.39V4.082c0-.08.007-.135.01-.161a.484.484 0 0 1 .16-.31.662.662 0 0 1 .297-.132h.002l4.756-.96c.04-.009.384-.07.423-.073.257-.023.402.146.401.42v7.547Z"/>
    </symbol>

    <symbol viewBox="0 0 16 16" id="calendar">
        <path d="M3.277 14.509h9.446c1.527 0 2.277-.75 2.277-2.25V3.741c0-1.5-.75-2.25-2.277-2.25H3.277C1.759 1.491 1 2.241 1 3.741v8.518c0 1.5.759 2.25 2.277 2.25Zm-.125-1.295c-.554 0-.866-.294-.866-.875V5.625c0-.58.312-.875.866-.875h9.687c.554 0 .875.295.875.875v6.714c0 .58-.321.875-.875.875H3.152Zm3.49-5.937h.412c.267 0 .357-.09.357-.348v-.411c0-.26-.09-.348-.357-.348h-.411c-.26 0-.348.089-.348.348v.41c0 .26.089.349.348.349Zm2.304 0h.411c.26 0 .348-.09.348-.348v-.411c0-.26-.089-.348-.348-.348h-.41c-.268 0-.358.089-.358.348v.41c0 .26.09.349.357.349Zm2.295 0h.41c.26 0 .358-.09.358-.348v-.411c0-.26-.098-.348-.357-.348h-.41c-.269 0-.358.089-.358.348v.41c0 .26.09.349.357.349ZM4.348 9.536h.41c.269 0 .358-.09.358-.348v-.411c0-.26-.09-.348-.357-.348h-.41c-.26 0-.358.089-.358.348v.41c0 .26.098.349.357.349Zm2.295 0h.41c.268 0 .358-.09.358-.348v-.411c0-.26-.09-.348-.357-.348h-.411c-.26 0-.348.089-.348.348v.41c0 .26.089.349.348.349Zm2.303 0h.411c.26 0 .348-.09.348-.348v-.411c0-.26-.089-.348-.348-.348h-.41c-.268 0-.358.089-.358.348v.41c0 .26.09.349.357.349Zm2.295 0h.41c.26 0 .358-.09.358-.348v-.411c0-.26-.098-.348-.357-.348h-.41c-.269 0-.358.089-.358.348v.41c0 .26.09.349.357.349Zm-6.893 2.259h.41c.269 0 .358-.09.358-.349v-.41c0-.26-.09-.348-.357-.348h-.41c-.26 0-.358.089-.358.348v.41c0 .26.098.349.357.349Zm2.295 0h.41c.268 0 .358-.09.358-.349v-.41c0-.26-.09-.348-.357-.348h-.411c-.26 0-.348.089-.348.348v.41c0 .26.089.349.348.349Zm2.303 0h.411c.26 0 .348-.09.348-.349v-.41c0-.26-.089-.348-.348-.348h-.41c-.268 0-.358.089-.358.348v.41c0 .26.09.349.357.349Z"/>
    </symbol>

    <symbol viewBox="0 0 16 16" id="chat">
        <path d="M3.068 16c.999 0 3.032-1.034 4.468-2.096 4.986.036 8.464-2.8 8.464-6.377 0-3.54-3.559-6.394-8-6.394-4.433 0-8 2.854-8 6.394 0 2.301 1.472 4.353 3.683 5.352-.32.624-.927 1.507-1.248 1.935-.384.508-.143 1.186.633 1.186Zm.874-1.329c-.053.027-.071-.018-.036-.062.41-.509.955-1.258 1.187-1.668.223-.401.169-.776-.348-1.017C2.55 10.907 1.32 9.33 1.32 7.527c0-2.791 2.96-5.074 6.68-5.074 3.728 0 6.68 2.283 6.68 5.074 0 2.783-2.952 5.066-6.68 5.066h-.526c-.33 0-.58.107-.874.348-.776.606-2.007 1.418-2.658 1.73Z"/>
    </symbol>

    <symbol viewBox="0 0 16 16" id="chevron-down">
        <path d="M8.004 10.297c.172 0 .328-.07.469-.203l3.43-3.28a.61.61 0 0 0 .179-.462.63.63 0 0 0-.64-.649.672.672 0 0 0-.47.188L8.005 8.804 5.027 5.891a.622.622 0 0 0-.46-.188.637.637 0 0 0-.65.65c0 .21.079.35.18.46l3.438 3.281c.133.133.29.203.469.203Z"/>
    </symbol>

    <symbol viewBox="0 0 16 16" id="close">
        <path d="M1.737 14.258c.33.32.869.32 1.19 0l5.07-5.08 5.08 5.08c.31.32.858.32 1.179 0 .32-.332.32-.87 0-1.18l-5.08-5.08 5.08-5.07a.846.846 0 0 0 0-1.19c-.332-.31-.87-.31-1.18 0l-5.08 5.08-5.07-5.08c-.32-.31-.869-.32-1.19 0a.877.877 0 0 0 0 1.19l5.08 5.07-5.08 5.08a.853.853 0 0 0 0 1.18Z"/>
    </symbol>

    <symbol viewBox="0 0 16 16" id="discord">
        <path d="M13.554 2.952a13.233 13.233 0 0 0-3.301-1.015 9.07 9.07 0 0 0-.423.86 12.292 12.292 0 0 0-3.664 0 9.106 9.106 0 0 0-.422-.86c-1.141.194-2.252.537-3.304 1.018C.351 6.045-.215 9.06.068 12.03a13.306 13.306 0 0 0 4.048 2.032c.328-.44.618-.908.867-1.398a8.61 8.61 0 0 1-1.365-.652c.115-.083.227-.168.335-.251a9.51 9.51 0 0 0 8.094 0c.11.089.222.174.335.251a8.643 8.643 0 0 1-1.368.653c.249.49.539.957.867 1.397a13.245 13.245 0 0 0 4.051-2.03c.332-3.447-.568-6.433-2.378-9.08Zm-8.212 7.252c-.789 0-1.44-.717-1.44-1.597S4.53 7.003 5.34 7.003s1.456.723 1.442 1.604-.636 1.597-1.44 1.597Zm5.316 0c-.79 0-1.44-.717-1.44-1.597s.63-1.604 1.44-1.604 1.452.723 1.438 1.604-.634 1.597-1.438 1.597Z"/>
    </symbol>

    <symbol viewBox="0 0 16 16" id="email">
        <path d="M7.996 8.663c.21 0 .42-.084.612-.26l6.612-5.798c-.378-.235-.789-.335-1.36-.335H2.14c-.571 0-.982.1-1.368.335l6.62 5.798c.193.176.402.26.604.26ZM.143 12.564l4.832-4.832-4.85-4.246c-.05.11-.125.428-.125.89v7.249c0 .41.059.704.143.94Zm1.762 1.166h12.19c.47 0 .848-.109 1.1-.276l-5.01-5-.93.83c-.395.344-.831.52-1.26.52-.419 0-.855-.176-1.25-.52l-.939-.83-5.009 5c.252.167.638.276 1.108.276Zm13.952-1.166a2.95 2.95 0 0 0 .143-.94V4.376c0-.461-.075-.78-.126-.889l-4.85 4.246 4.833 4.832Z"/>
    </symbol>

    <symbol viewBox="0 0 16 16" id="ellipsis-vertical">
        <path d="M6.351 14.351C6.351 15.266 7.085 16 8 16s1.649-.734 1.649-1.649c0-.904-.734-1.649-1.649-1.649s-1.649.745-1.649 1.65Zm0-6.351c0 .915.734 1.649 1.649 1.649S9.649 8.915 9.649 8 8.915 6.351 8 6.351 6.351 7.085 6.351 8Zm0-6.351c0 .915.734 1.649 1.649 1.649s1.649-.734 1.649-1.65S8.915 0 8 0 6.351.734 6.351 1.649Z"/>
    </symbol>

    <symbol viewBox="0 0 16 16" id="facebook">
        <path d="m11.723 9 .445-2.896H9.389V4.225c0-.792.388-1.564 1.633-1.564h1.263V.196S11.138 0 10.043 0C7.754 0 6.259 1.387 6.259 3.897v2.207H3.715V9H6.26v7h3.13V9h2.334Z"/>
    </symbol>

    <symbol viewBox="0 0 16 16" id="forum">
        <path d="M12.007 3.555H8.523c-2.147 0-3.379 1.274-3.379 3.379v2.77c0 .685.132 1.284.387 1.777l-1.17 1.047c-.373.34-.58.498-.885.498-.437 0-.679-.304-.679-.775v-1.385h-.2C.892 10.866 0 9.952 0 8.27V4.248C0 2.565.893 1.65 2.596 1.65h6.875c1.451 0 2.314.668 2.536 1.904ZM8.945 7.751a.473.473 0 0 1-.485-.485c0-.284.201-.485.485-.485h4.099c.277 0 .491.201.491.485 0 .27-.214.485-.491.485H8.945Zm0 2.16c-.284 0-.485-.194-.485-.47 0-.27.201-.492.485-.492h2.991c.277 0 .491.221.491.491 0 .277-.214.47-.491.47h-2.99Zm-.422 2.36h1.454l1.848 1.58c.388.332.589.498.893.498.43 0 .672-.305.672-.776v-1.301h.034c1.69 0 2.576-.907 2.576-2.569v-2.77c0-1.66-.886-2.568-2.576-2.568H8.523c-1.69 0-2.569.907-2.569 2.569v2.77c0 1.66.88 2.568 2.569 2.568Z"/>
    </symbol>

    <symbol viewBox="0 0 16 16" id="github">
        <path d="M8.007.133C3.579.133 0 3.74 0 8.2a8.06 8.06 0 0 0 5.475 7.652c.397.08.543-.173.543-.387 0-.187-.013-.828-.013-1.496-2.227.481-2.691-.961-2.691-.961-.358-.935-.888-1.175-.888-1.175-.73-.494.053-.494.053-.494.808.053 1.233.828 1.233.828.715 1.228 1.869.881 2.333.667.066-.52.278-.881.504-1.081-1.777-.187-3.646-.882-3.646-3.98 0-.881.318-1.603.822-2.163-.08-.2-.358-1.029.08-2.137 0 0 .676-.214 2.2.828a7.698 7.698 0 0 1 2.002-.267 7.7 7.7 0 0 1 2.001.267c1.525-1.042 2.2-.828 2.2-.828.438 1.108.16 1.936.08 2.137.517.56.822 1.282.822 2.163 0 3.098-1.869 3.78-3.659 3.98.292.253.544.734.544 1.495 0 1.082-.013 1.95-.013 2.217 0 .214.146.468.543.388A8.06 8.06 0 0 0 16 8.199C16.013 3.74 12.42.133 8.007.133Z"/>
    </symbol>

    <symbol viewBox="0 0 16 16" id="info">
        <path d="M7.995 15.99c4.37 0 8.005-3.626 8.005-7.995S12.354 0 7.985 0C3.626 0 0 3.626 0 7.995s3.636 7.995 7.995 7.995Zm0-1.506c-3.596 0-6.47-2.883-6.47-6.489s2.864-6.49 6.46-6.49c3.606 0 6.5 2.884 6.5 6.49s-2.884 6.49-6.49 6.49Zm-1.337-2.1h3.15c.357 0 .644-.258.644-.624 0-.347-.287-.615-.644-.615h-.872V7.44c0-.485-.238-.792-.683-.792H6.806c-.356 0-.634.267-.634.604 0 .367.278.624.634.624h.723v3.27h-.871c-.357 0-.644.267-.644.614 0 .366.287.624.644.624Zm1.258-6.955c.624 0 1.11-.495 1.11-1.12S8.54 3.2 7.915 3.2c-.614 0-1.11.485-1.11 1.11s.496 1.12 1.11 1.12Z"/>
    </symbol>

    <symbol viewBox="0 0 16 16" id="instagram">
        <path d="M8.002 3.899C5.732 3.899 3.9 5.729 3.9 8s1.832 4.101 4.102 4.101 4.101-1.83 4.101-4.101-1.831-4.101-4.101-4.101Zm0 6.767c-1.467 0-2.667-1.195-2.667-2.666s1.196-2.666 2.667-2.666S10.668 6.529 10.668 8s-1.2 2.666-2.666 2.666Zm5.225-6.935a.954.954 0 0 1-.956.957.957.957 0 1 1 .957-.957Zm2.717.97c-.06-1.28-.354-2.416-1.292-3.35C13.716.414 12.582.121 11.3.057c-1.32-.075-5.28-.075-6.6 0-1.278.06-2.413.353-3.352 1.289S.12 3.417.056 4.698c-.075 1.321-.075 5.28 0 6.6.06 1.282.354 2.417 1.292 3.352.94.935 2.07 1.228 3.352 1.292 1.32.075 5.28.075 6.6 0 1.281-.06 2.416-.353 3.352-1.292.935-.935 1.228-2.07 1.292-3.352.075-1.32.075-5.275 0-6.596Zm-1.706 8.014a2.7 2.7 0 0 1-1.521 1.52c-1.053.418-3.552.322-4.715.322s-3.666.093-4.715-.321a2.7 2.7 0 0 1-1.521-1.52C1.348 11.661 1.445 9.163 1.445 8s-.093-3.666.321-4.715a2.7 2.7 0 0 1 1.52-1.52c1.054-.418 3.552-.322 4.716-.322s3.666-.093 4.715.321a2.7 2.7 0 0 1 1.52 1.52c.418 1.054.322 3.552.322 4.716s.096 3.666-.321 4.715Z"/>
    </symbol>

    <symbol viewBox="0 0 16 16" id="location">
        <path d="M7.995 15.995C12.365 15.995 16 12.37 16 8S12.354.005 7.985.005C3.626.005 0 3.631 0 8s3.636 7.995 7.995 7.995Zm0-1.506c-3.596 0-6.47-2.883-6.47-6.489s2.864-6.49 6.46-6.49c3.606 0 6.5 2.884 6.5 6.49s-2.884 6.49-6.49 6.49Zm-4.23-5.756h3.09c.179 0 .288.11.288.287v3.052c0 .782.812.862 1.07.297l3.378-7.212c.307-.654-.257-1.239-.93-.922L3.466 7.663c-.554.258-.475 1.07.298 1.07Z"/>
    </symbol>

    <symbol viewBox="0 0 16 16" id="new">
        <path d="M7.593 3.441c.099 0 .152-.062.17-.143.224-1.153.206-1.17 1.403-1.403.09-.018.152-.072.152-.17 0-.098-.062-.152-.152-.17-1.197-.232-1.18-.25-1.403-1.403C7.745.062 7.692 0 7.593 0c-.09 0-.143.063-.16.152-.233 1.153-.206 1.17-1.404 1.403-.09.018-.152.072-.152.17 0 .098.063.152.152.17 1.198.232 1.171.25 1.403 1.403.018.08.072.143.161.143ZM4.241 8.295c.143 0 .242-.098.26-.241.24-1.869.321-1.877 2.261-2.253.134-.018.241-.116.241-.26 0-.151-.107-.25-.241-.267-1.94-.25-2.03-.34-2.261-2.244-.018-.152-.117-.25-.26-.25-.152 0-.25.098-.268.26-.214 1.867-.348 1.867-2.261 2.234-.134.027-.242.116-.242.268s.108.241.277.26c1.895.294 2.012.366 2.226 2.234.018.16.116.259.268.259ZM8.988 16c.187 0 .34-.134.375-.34.519-3.727 1.09-4.38 4.8-4.818.215-.017.367-.178.367-.375 0-.206-.152-.358-.367-.384-3.71-.438-4.281-1.082-4.8-4.81-.036-.214-.188-.348-.375-.348-.197 0-.349.134-.376.349-.527 3.727-1.1 4.37-4.809 4.809-.214.026-.357.178-.357.384 0 .197.143.358.357.375 3.7.501 4.264 1.091 4.81 4.818a.37.37 0 0 0 .375.34Z"/>
    </symbol>

    <symbol viewBox="0 0 16 16" id="options">
        <path d="M8.796 3.534V1.055c0-.409-.354-.762-.796-.762a.779.779 0 0 0-.796.762v2.477a2.167 2.167 0 0 0-1.37 2.01c0 .903.57 1.68 1.37 1.998v7.372c0 .442.343.795.796.795a.792.792 0 0 0 .796-.795V7.538a2.164 2.164 0 0 0 1.359-1.997 2.17 2.17 0 0 0-1.36-2.007ZM8 6.524c-.552 0-.983-.43-.983-.983s.43-.983.983-.983.983.431.983.983-.43.984-.983.984Zm6.63 1.903V1.099a.795.795 0 1 0-1.591 0v7.328a2.167 2.167 0 0 0-1.37 2.01c0 .903.57 1.68 1.37 1.998v2.52c0 .399.353.752.795.752.442 0 .796-.353.796-.751v-2.52a2.16 2.16 0 0 0 1.37-2c0-.912-.57-1.69-1.37-2.01Zm-.796 2.993c-.541 0-.983-.431-.983-.984s.442-.983.983-.983c.564 0 .984.431.984.983s-.42.984-.984.984ZM1.37 12.435v2.52c0 .399.343.752.796.752.442 0 .795-.353.795-.751v-2.523a2.164 2.164 0 0 0 1.36-1.997A2.17 2.17 0 0 0 2.96 8.43v-7.33a.795.795 0 0 0-.795-.806.788.788 0 0 0-.796.806v7.328A2.167 2.167 0 0 0 0 10.437c0 .903.57 1.68 1.37 1.998Zm.796-2.982c.552 0 .983.431.983.983s-.43.984-.983.984-.984-.431-.984-.984.431-.983.984-.983Z"/>
    </symbol>

    <symbol viewBox="0 0 16 16" id="past">
        <path d="M1.403 9.384C1.403 13.051 4.353 16 8 16s6.597-2.949 6.597-6.615A6.584 6.584 0 0 0 8 2.787c-.36 0-.718.028-1.058.094l1.738-1.7a.741.741 0 0 0 .18-.483C8.86.312 8.567 0 8.199 0a.627.627 0 0 0-.492.208L4.721 3.232a.695.695 0 0 0-.199.482c0 .199.066.36.199.492l2.986 2.986c.113.123.284.189.491.189a.662.662 0 0 0 .662-.68c0-.17-.066-.34-.189-.473L6.667 4.262C7.064 4.177 7.51 4.15 8 4.15a5.223 5.223 0 0 1 5.236 5.235A5.225 5.225 0 0 1 8 14.63a5.231 5.231 0 0 1-5.236-5.246c0-.406-.255-.699-.652-.699-.416 0-.709.293-.709.7Z"/>
    </symbol>

    <symbol viewBox="0 0 16 16" id="reddit">
        <path d="M13.666 5.66c-.535 0-1.028.18-1.421.483-1.072-.663-2.424-1.08-3.904-1.135V5c0-.991.737-1.814 1.693-1.95a1.667 1.667 0 1 0-.01-.72 2.69 2.69 0 0 0-2.399 2.671v.009c-1.465.062-2.802.479-3.864 1.137a2.334 2.334 0 1 0-2.417 3.96c.077 2.71 3.03 4.89 6.661 4.89s6.589-2.182 6.662-4.894a2.335 2.335 0 0 0-1.001-4.443V5.66Z"/>
    </symbol>

    <symbol viewBox="0 0 16 16" id="rss">
        <path d="M5.795 12.603a2.397 2.397 0 1 1-4.795 0 2.397 2.397 0 0 1 4.795 0M13.8 15a1.198 1.198 0 0 1-1.198-1.199c0-6.418-3.987-10.404-10.404-10.404a1.199 1.199 0 1 1 0-2.397c3.79 0 7 1.211 9.297 3.504C13.793 6.797 15 10.013 15 13.801A1.198 1.198 0 0 1 13.801 15Zm-4.537 0a1.198 1.198 0 0 1-1.198-1.199c0-3.892-1.974-5.867-5.867-5.867a1.199 1.199 0 0 1 0-2.397c5.251 0 8.264 3.012 8.264 8.263A1.199 1.199 0 0 1 9.265 15Z"/>
    </symbol>

    <symbol viewBox="0 0 16 16" id="share">
        <path d="M14.31 6.843v6.897c0 1.507-.754 2.26-2.288 2.26H3.978c-1.525 0-2.287-.753-2.287-2.26V6.843c0-1.507.762-2.26 2.287-2.26h1.964v1.3H3.995c-.645 0-1.013.35-1.013 1.023v6.771c0 .682.368 1.023 1.013 1.023h8.01c.636 0 1.013-.341 1.013-1.023V6.906c0-.673-.377-1.023-1.014-1.023H10.05v-1.3h1.973c1.534 0 2.287.753 2.287 2.26ZM7.995 10.44c.35 0 .645-.287.645-.627V2.816L8.587 1.74l.377.412.987 1.068a.593.593 0 0 0 .43.188c.341 0 .592-.233.592-.556a.54.54 0 0 0-.197-.421L8.462.214C8.3.054 8.166 0 7.996 0c-.162 0-.296.054-.467.215L5.215 2.431a.563.563 0 0 0-.188.421c0 .323.242.556.583.556a.612.612 0 0 0 .44-.188l.986-1.068.377-.412-.054 1.076v6.996c0 .34.296.627.636.627Z"/>
    </symbol>

    <symbol viewBox="0 0 16 16" id="soundcloud">
        <path d="M4 12h1V5.703a2.57 2.57 0 0 0-1 .551V12ZM2 7.74v4.253l.064.007H3V7.733h-.936L2 7.74ZM0 9.866c0 .774.403 1.446 1 1.82V8.047a2.14 2.14 0 0 0-1 1.819ZM6 12h1V5.98a2.496 2.496 0 0 0-1-.357V12Zm7.936-4.267h-.563a3.28 3.28 0 0 0 .047-.533c0-1.767-1.387-3.2-3.097-3.2A3.04 3.04 0 0 0 8 5.096V12h5.936C15.075 12 16 11.045 16 9.866c0-1.178-.925-2.133-2.064-2.133Z"/>
    </symbol>

    <symbol viewBox="0 0 16 16" id="spotify">
        <path d="M8 0C3.584 0 0 3.584 0 8s3.584 8 8 8 8-3.584 8-8-3.584-8-8-8Zm3.248 11.771c-.135 0-.219-.042-.345-.116-2.013-1.213-4.355-1.265-6.668-.79-.125.032-.29.083-.383.083a.502.502 0 0 1-.51-.51c0-.332.197-.49.439-.541 2.642-.584 5.342-.532 7.645.845.197.126.313.239.313.532s-.23.497-.49.497Zm.868-2.116c-.168 0-.28-.074-.397-.136-2.016-1.193-5.022-1.674-7.696-.948-.155.042-.24.084-.384.084-.345 0-.626-.28-.626-.626s.168-.574.5-.668a10.85 10.85 0 0 1 3.155-.438c2.093 0 4.116.519 5.71 1.467.26.155.364.355.364.636a.625.625 0 0 1-.626.629Zm1-2.458a.742.742 0 0 1-.416-.126c-2.297-1.371-6.403-1.7-9.061-.958-.116.032-.262.084-.416.084a.744.744 0 0 1-.752-.762c0-.438.27-.687.561-.77 1.136-.333 2.407-.49 3.79-.49 2.355 0 4.823.49 6.626 1.541.252.145.417.345.417.73a.747.747 0 0 1-.749.75Z"/>
    </symbol>

    <symbol viewBox="0 0 16 16" id="twitter">
        <path d="M9.522 6.776 15.475 0h-1.41l-5.17 5.882L4.766 0H.007l6.241 8.896L.007 16h1.41l5.456-6.213L11.233 16h4.76M1.926 1.041h2.166l9.972 13.969h-2.167"/>
    </symbol>

    <symbol viewBox="0 0 16 16" id="website">
        <path d="M7.985.005C3.626.005 0 3.63 0 8s3.636 7.995 7.995 7.995C12.365 15.995 16 12.37 16 8S12.354.005 7.985.005ZM7.42 4.07a11.333 11.333 0 0 1-1.527-.16c.399-1.062.937-1.847 1.527-2.164v2.324Zm0 1.146v2.208H5.216c.038-.86.159-1.683.342-2.426.585.117 1.212.19 1.862.218Zm0 3.358v2.248c-.647.028-1.272.1-1.855.217a12.384 12.384 0 0 1-.35-2.465H7.42Zm0 3.394v2.284c-.584-.314-1.117-1.085-1.514-2.127.47-.083.977-.135 1.514-.157Zm1.15 0c.542.022 1.052.074 1.523.158-.399 1.043-.934 1.816-1.523 2.128v-2.286Zm0-1.146V8.575h2.215c-.037.873-.16 1.71-.35 2.465a12.182 12.182 0 0 0-1.865-.217Zm0-3.398V5.217a12.18 12.18 0 0 0 1.871-.22c.184.744.305 1.568.343 2.428H8.57Zm0-3.354V1.745c.595.316 1.135 1.102 1.536 2.166-.475.085-.99.138-1.536.16ZM10 1.507a6.888 6.888 0 0 1 2.544 1.48c-.37.254-.806.468-1.307.636-.325-.866-.746-1.586-1.236-2.116ZM4.76 3.624a5.168 5.168 0 0 1-1.311-.642 6.841 6.841 0 0 1 2.549-1.481c-.492.53-.913 1.253-1.238 2.123Zm-.332 1.075a13.29 13.29 0 0 0-.38 2.726h-2.82a6.776 6.776 0 0 1 1.443-3.61c.464.356 1.062.653 1.757.884Zm-.381 3.876c.036.994.171 1.925.387 2.764-.687.227-1.28.519-1.743.868A6.77 6.77 0 0 1 1.23 8.575h2.818Zm.725 3.837c.323.852.74 1.562 1.225 2.085a6.86 6.86 0 0 1-2.52-1.46c.365-.249.798-.459 1.295-.625Zm6.453 0c.496.166.93.376 1.297.626a6.867 6.867 0 0 1-2.527 1.46c.487-.523.905-1.233 1.23-2.085Zm.339-1.072c.216-.84.352-1.77.39-2.765h2.817a6.767 6.767 0 0 1-1.464 3.633c-.464-.35-1.057-.641-1.743-.868Zm.389-3.915a13.234 13.234 0 0 0-.383-2.727c.692-.23 1.288-.526 1.753-.88a6.757 6.757 0 0 1 1.448 3.607h-2.818Z"/>
    </symbol>

    <symbol viewBox="0 0 16 16" id="youtube">
        <path d="M15.666 4.135a2.01 2.01 0 0 0-1.415-1.423C13.003 2.375 8 2.375 8 2.375s-5.003 0-6.251.337A2.01 2.01 0 0 0 .334 4.135C0 5.391 0 8.011 0 8.011s0 2.62.334 3.876a1.98 1.98 0 0 0 1.415 1.401c1.248.337 6.251.337 6.251.337s5.003 0 6.251-.337a1.98 1.98 0 0 0 1.415-1.4C16 10.631 16 8.01 16 8.01s0-2.62-.334-3.876ZM6.364 10.39V5.632l4.181 2.38-4.181 2.378Z"/>
    </symbol>
</svg>